<?xml version="1.0" encoding="utf-8"?>
<!-- Generator: Adobe Illustrator 19.2.0, SVG Export Plug-In . SVG Version: 6.00 Build 0)  -->
<svg version="1.1"
	 id="svg3070" inkscape:version="0.48.0 r9654" sodipodi:docname="New document 4" xmlns:cc="http://creativecommons.org/ns#" xmlns:dc="http://purl.org/dc/elements/1.1/" xmlns:inkscape="http://www.inkscape.org/namespaces/inkscape" xmlns:rdf="http://www.w3.org/1999/02/22-rdf-syntax-ns#" xmlns:sodipodi="http://sodipodi.sourceforge.net/DTD/sodipodi-0.dtd" xmlns:svg="http://www.w3.org/2000/svg"
	 xmlns="http://www.w3.org/2000/svg" xmlns:xlink="http://www.w3.org/1999/xlink" x="0px" y="0px" viewBox="0 0 291 79.5"
	 style="enable-background:new 0 0 291 79.5;" xml:space="preserve">
<style type="text/css">
	.st0{fill:#006699;}
	.st1{fill:#FEFEFE;}
	.st2{fill:#FFFFFF;}
</style>
<sodipodi:namedview  bordercolor="#666666" borderopacity="1.0" fit-margin-bottom="0" fit-margin-left="0" fit-margin-right="0" fit-margin-top="0" id="base" inkscape:current-layer="layer1" inkscape:cx="142.93233" inkscape:cy="33.703355" inkscape:document-units="px" inkscape:pageopacity="0.0" inkscape:pageshadow="2" inkscape:window-height="750" inkscape:window-maximized="1" inkscape:window-width="1280" inkscape:window-x="-8" inkscape:window-y="-8" inkscape:zoom="2.8" pagecolor="#ffffff" showgrid="false">
	</sodipodi:namedview>
<g id="g3019" transform="matrix(1.018827,0,0,-1.018827,170.5996,498.03288)">
	<path id="path14" inkscape:connector-curvature="0" class="st0" d="M42.5,481.7c0,3,2.5,5.4,5.5,5.4h63.4c3,0,5.5-2.4,5.5-5.4
		v-64.1c0-3-2.5-5.4-5.5-5.4H48c-3,0-5.5,2.4-5.5,5.4V481.7z"/>
	<path id="path16" inkscape:connector-curvature="0" class="st1" d="M-165.7,424.4h31v10.2h-19.8v38.9h-11.2
		C-165.7,473.5-165.7,424.4-165.7,424.4z"/>
	<path id="path18" inkscape:connector-curvature="0" class="st1" d="M-118.9,424.4v33.8h-11.2v-33.8H-118.9z M-124.6,462.8
		c3.9,0,6.4,2.6,6.4,5.8c-0.1,3.3-2.4,5.8-6.3,5.8c-3.8,0-6.4-2.5-6.4-5.8C-130.8,465.4-128.4,462.8-124.6,462.8L-124.6,462.8
		L-124.6,462.8z"/>
	<path id="path20" inkscape:connector-curvature="0" class="st1" d="M-113.7,424.4h11.2v18.9c0,1,0.1,2,0.4,2.7
		c0.8,2,2.7,4.1,5.8,4.1c4.1,0,5.7-3.1,5.7-7.6v-18.1h11.2v19.4c0,10.4-5.5,15.2-12.9,15.2c-6.1,0-8.7-3.4-10.2-5.7h0.1v4.9h-11.2
		C-113.6,455-113.7,424.4-113.7,424.4L-113.7,424.4z"/>
	<path id="path22" inkscape:connector-curvature="0" class="st1" d="M-63.6,473.5h-11.2v-49.1h11.2v11l2.8,3.5l8.8-14.5h13.8
		l-14.8,21l12.9,14.3h-13.5c0,0-9.2-12.8-10-14.3L-63.6,473.5L-63.6,473.5z"/>
	<path id="path24" inkscape:connector-curvature="0" class="st1" d="M-8.1,438.5c0.1,0.9,0.4,2.5,0.4,4.4c0,8.7-4.4,17.6-16.1,17.6
		c-12.5,0-18.3-9.9-18.3-18.8c0-11.1,7-18,19.3-18c4.9,0,9.4,0.7,13.1,2.2l-1.5,7.4c-3-1-6.1-1.5-10-1.5c-5.2,0-9.8,2.2-10.2,6.7
		L-8.1,438.5L-8.1,438.5z M-31.5,446.1c0.3,2.9,2.2,7.1,7,7.1c5.1,0,6.3-4.5,6.3-7.1H-31.5z"/>
	<path id="path26" inkscape:connector-curvature="0" class="st1" d="M20,473.5v-17h-0.1c-1.6,2.4-5,4-9.5,4
		c-8.6,0-16.3-6.9-16.2-18.7c0-11,6.9-18.1,15.4-18.1c4.7,0,9.1,2,11.3,5.9h0.2l0.4-5.1h10c-0.1,2.4-0.3,6.5-0.3,10.5v38.5H20
		L20,473.5z M20,440c0-0.9-0.1-1.7-0.2-2.4c-0.7-3.1-3.3-5.3-6.6-5.3c-4.7,0-7.7,3.7-7.7,9.7c0,5.5,2.6,10,7.8,10
		c3.5,0,5.9-2.4,6.6-5.3c0.1-0.6,0.1-1.4,0.1-2L20,440L20,440z"/>
	<path id="path28" inkscape:connector-curvature="0" class="st2" d="M65,424.4v33.8H53.8v-33.8H65z M59.4,462.8
		c3.9,0,6.4,2.6,6.4,5.8c-0.1,3.3-2.4,5.8-6.3,5.8c-3.8,0-6.4-2.5-6.4-5.8C53.1,465.4,55.6,462.8,59.4,462.8L59.4,462.8L59.4,462.8z
		"/>
	<path id="path30" inkscape:connector-curvature="0" class="st2" d="M71.2,424.4h11.2v18.9c0,1,0.1,2,0.4,2.7c0.8,2,2.7,4.1,5.8,4.1
		c4.1,0,5.7-3.1,5.7-7.6v-18.1h11.2v19.4c0,10.4-5.5,15.2-12.9,15.2c-6.1,0-8.7-3.4-10.2-5.7h0.1v4.9H71.2
		C71.4,455.1,71.2,424.4,71.2,424.4L71.2,424.4z"/>
</g>
</svg>
